<svg width="60" height="86" viewBox="0 0 60 86" fill="none" xmlns="http://www.w3.org/2000/svg">
<path d="M5.83415 80.8439C5.83415 81.3386 5.80615 81.7539 5.75015 82.0899H9.62815L9.58615 82.9999H4.74215L4.78415 73.3399H9.62815L9.58615 74.2499H5.82015C5.83882 74.5206 5.84815 74.9359 5.84815 75.4959L5.83415 77.3299H9.19415V78.2399H5.83415V80.8439ZM15.3258 78.2259V77.2039C15.0552 77.0639 14.6492 76.9939 14.1078 76.9939C12.7265 76.9939 12.0358 78.0346 12.0358 80.1159C12.0358 81.6373 12.4978 82.3979 13.4218 82.3979C13.8138 82.3979 14.1405 82.2673 14.4018 82.0059C14.6725 81.7353 14.8732 81.3713 15.0038 80.9139C15.2185 80.1206 15.3258 79.2246 15.3258 78.2259ZM13.3238 83.1679C12.5118 83.1679 11.9192 82.8879 11.5458 82.3279C11.1725 81.7679 10.9858 80.9746 10.9858 79.9479C10.9858 78.9119 11.2472 78.0393 11.7698 77.3299C12.3018 76.6113 13.0812 76.2519 14.1078 76.2519C14.4718 76.2519 14.8312 76.2893 15.1858 76.3639C15.5498 76.4386 15.9092 76.5459 16.2638 76.6859V80.2419C16.2638 81.1939 16.3478 81.7959 16.5158 82.0479C16.6745 82.2999 16.9405 82.4259 17.3138 82.4259L17.3418 83.0559C17.1925 83.0933 17.0058 83.1119 16.7818 83.1119C16.2872 83.1119 15.9325 82.9393 15.7178 82.5939C15.5592 82.3419 15.4798 82.0433 15.4798 81.6979C15.4798 81.5859 15.4892 81.4646 15.5078 81.3339H15.4238C15.2652 81.8939 15.0085 82.3419 14.6538 82.6779C14.3085 83.0046 13.8652 83.1679 13.3238 83.1679ZM22.1193 82.2999L22.2593 82.9159C21.914 83.0839 21.4987 83.1679 21.0133 83.1679C20.3227 83.1679 19.8653 82.9813 19.6413 82.6079C19.4173 82.2346 19.3053 81.6419 19.3053 80.8299V77.1619H18.1853V76.5599L19.3053 76.4199V74.9639L20.3133 74.7959V76.4199H22.1193V77.1619H20.3133V80.5219C20.3133 81.3899 20.388 81.9173 20.5373 82.1039C20.724 82.3186 20.976 82.4259 21.2933 82.4259C21.6107 82.4259 21.886 82.3839 22.1193 82.2999ZM28.6769 78.8979H27.4869V77.9739H29.7269V82.4959C29.1109 82.9439 28.2709 83.1679 27.2069 83.1679C25.8629 83.1679 24.9202 82.6919 24.3789 81.7399C23.8936 80.8813 23.6509 79.7239 23.6509 78.2679C23.6509 76.8119 24.0009 75.6173 24.7009 74.6839C25.4102 73.7506 26.4136 73.2839 27.7109 73.2839C28.3456 73.2839 28.9476 73.3773 29.5169 73.5639L29.3069 74.3479C28.7936 74.2546 28.3036 74.2079 27.8369 74.2079C25.7929 74.2079 24.7709 75.5613 24.7709 78.2679C24.7709 80.2093 25.2096 81.4319 26.0869 81.9359C26.4416 82.1413 26.8616 82.2439 27.3469 82.2439C27.8416 82.2439 28.2849 82.1739 28.6769 82.0339V78.8979ZM32.9441 76.2939C33.1307 76.3686 33.2241 76.6113 33.2241 77.0219C33.2241 77.4233 33.1914 77.7966 33.1261 78.1419H33.2101C33.4154 77.4793 33.6534 76.9986 33.9241 76.6999C34.1947 76.4013 34.6194 76.2519 35.1981 76.2519L35.6321 76.3079L35.5061 77.2739C35.3847 77.2459 35.2354 77.2319 35.0581 77.2319C34.6941 77.2319 34.3814 77.3533 34.1201 77.5959C33.8681 77.8293 33.6814 78.1466 33.5601 78.5479C33.3267 79.2666 33.2101 80.0739 33.2101 80.9699V82.9999H32.2441V78.4779C32.2441 77.5353 32.1927 76.8399 32.0901 76.3919L32.9441 76.2939ZM40.6757 77.8619C40.6757 77.5913 40.5917 77.3859 40.4237 77.2459C40.2557 77.1059 40.0317 77.0359 39.7517 77.0359C39.1917 77.0359 38.753 77.2693 38.4357 77.7359C38.1183 78.1933 37.9363 78.7486 37.8897 79.4019C39.747 79.4019 40.6757 78.8886 40.6757 77.8619ZM39.4717 83.1679C37.717 83.1679 36.8397 82.0479 36.8397 79.8079C36.8397 78.7813 37.0963 77.9319 37.6097 77.2599C38.1323 76.5879 38.865 76.2519 39.8077 76.2519C40.3863 76.2519 40.8437 76.3919 41.1797 76.6719C41.525 76.9426 41.6977 77.3206 41.6977 77.8059C41.6977 78.2819 41.581 78.6739 41.3477 78.9819C41.1237 79.2806 40.8157 79.5093 40.4237 79.6679C39.6863 79.9666 38.8323 80.1159 37.8617 80.1159C37.8617 81.5999 38.4543 82.3419 39.6397 82.3419C40.237 82.3419 40.8017 82.1786 41.3337 81.8519L41.4877 82.3979C41.2543 82.6313 40.9463 82.8179 40.5637 82.9579C40.1903 83.0979 39.8263 83.1679 39.4717 83.1679ZM46.7323 77.8619C46.7323 77.5913 46.6483 77.3859 46.4803 77.2459C46.3123 77.1059 46.0883 77.0359 45.8083 77.0359C45.2483 77.0359 44.8096 77.2693 44.4923 77.7359C44.175 78.1933 43.993 78.7486 43.9463 79.4019C45.8036 79.4019 46.7323 78.8886 46.7323 77.8619ZM45.5283 83.1679C43.7736 83.1679 42.8963 82.0479 42.8963 79.8079C42.8963 78.7813 43.153 77.9319 43.6663 77.2599C44.189 76.5879 44.9216 76.2519 45.8643 76.2519C46.443 76.2519 46.9003 76.3919 47.2363 76.6719C47.5816 76.9426 47.7543 77.3206 47.7543 77.8059C47.7543 78.2819 47.6376 78.6739 47.4043 78.9819C47.1803 79.2806 46.8723 79.5093 46.4803 79.6679C45.743 79.9666 44.889 80.1159 43.9183 80.1159C43.9183 81.5999 44.511 82.3419 45.6963 82.3419C46.2936 82.3419 46.8583 82.1786 47.3903 81.8519L47.5443 82.3979C47.311 82.6313 47.003 82.8179 46.6203 82.9579C46.247 83.0979 45.883 83.1679 45.5283 83.1679ZM50.4229 76.6999C50.4229 77.1946 50.3856 77.6099 50.3109 77.9459H50.3949C50.5256 77.4233 50.7776 77.0126 51.1509 76.7139C51.5336 76.4059 51.9956 76.2519 52.5369 76.2519C53.2743 76.2519 53.7829 76.4386 54.0629 76.8119C54.3429 77.1759 54.4829 77.7266 54.4829 78.4639C54.4829 78.4919 54.4736 78.9679 54.4549 79.8919C54.4456 80.8159 54.4409 81.4039 54.4409 81.6559C54.4409 81.9079 54.4689 82.0946 54.5249 82.2159C54.5903 82.3373 54.7909 82.3979 55.1269 82.3979L55.1549 83.0279C55.0243 83.0839 54.8329 83.1119 54.5809 83.1119C54.1329 83.1119 53.8249 83.0093 53.6569 82.8039C53.4983 82.5986 53.4189 82.2719 53.4189 81.8239C53.4189 81.8053 53.4283 81.3013 53.4469 80.3119C53.4656 79.3226 53.4749 78.8093 53.4749 78.7719C53.4749 78.2306 53.4049 77.8106 53.2649 77.5119C53.1249 77.2039 52.8449 77.0499 52.4249 77.0499C52.0143 77.0499 51.6689 77.1806 51.3889 77.4419C51.1183 77.7033 50.9129 78.0439 50.7729 78.4639C50.5209 79.2759 50.3949 80.1393 50.3949 81.0539V82.9999H49.4289V76.4199L50.4229 76.2939V76.6999Z" fill="white"/>
<path d="M19.405 25.1562C20.785 25.1562 21.905 24.0362 21.905 22.6562V12.9062C21.905 8.5475 25.4513 5 29.81 5C34.1688 5 37.7163 8.5475 37.7163 12.9062V22.6562C37.7163 24.0362 38.835 25.1562 40.2163 25.1562C41.5963 25.1562 42.7163 24.0362 42.7163 22.6562V12.9062C42.7175 5.79 36.9275 0 29.81 0C22.695 0 16.905 5.79 16.905 12.9062V22.6562C16.905 24.0362 18.025 25.1562 19.405 25.1562Z" fill="white"/>
<path fill-rule="evenodd" clip-rule="evenodd" d="M45.2175 19.5387H58.4875C59.1787 19.5387 59.6037 20.0812 59.44 20.7525L50.695 56.3737C50.165 58.3762 48.06 60 45.9875 60H13.4875C11.4175 60 9.31001 58.3762 8.78251 56.3737L0.0350106 20.7525C-0.128739 20.0825 0.297511 19.5387 0.98751 19.5387H14.4063V22.6562C14.4063 25.4137 16.6488 27.6562 19.4063 27.6562C22.1638 27.6562 24.4063 25.4137 24.4063 22.6562V19.5387H35.2175V22.6562C35.2175 25.4137 37.46 27.6562 40.2175 27.6562C42.975 27.6562 45.2175 25.4137 45.2175 22.6562V19.5387ZM34.466 52.517C40.633 50.5753 44.7375 44.5827 44.7375 37.4462C44.7375 35.019 44.1926 32.5004 43.2208 30.4455C42.9489 29.8683 42.1077 29.8509 41.7759 30.3993C39.9536 33.4028 36.3091 34.5595 33.0278 33.8163C31.5483 33.4811 29.9458 33.4505 28.2858 33.8166C24.4561 34.6647 21.3758 37.6326 20.5866 41.3046C20.4522 41.9301 20.3908 42.545 20.3794 43.1487C23.5851 40.861 28.132 38.9304 34.425 38.9304C34.9406 38.9304 35.3625 39.3322 35.3625 39.8232C35.3625 40.3142 34.9406 40.7159 34.4231 40.715C20.0775 40.715 15.3389 51.1435 14.7766 53.3475C14.5955 54.0662 15.0613 54.7905 15.8166 54.9634C15.9265 54.9878 16.0368 55 16.1448 55C16.7806 55 17.3577 54.5871 17.5118 53.9728C17.5265 53.9114 18.3808 50.727 21.5525 47.9411C23.3396 51.1751 26.8728 53.2122 30.6755 53.2122C32.015 53.2122 33.2918 52.9599 34.466 52.517Z" fill="white"/>
</svg>
