<svg width="74" height="84" viewBox="0 0 74 84" fill="none" xmlns="http://www.w3.org/2000/svg">
<path d="M19.7533 25.6449H26.2385V16.5903H19.7533C16.0764 16.5903 12.5501 18.0403 9.94976 20.6213C7.34939 23.2023 5.88792 26.7031 5.88672 30.3538V39.4084C5.88792 35.7577 7.34939 32.2569 9.94976 29.6759C12.5501 27.0948 16.0764 25.6449 19.7533 25.6449Z" fill="url(#paint0_linear_3038_524)"/>
<path d="M19.7533 42.2358C17.9322 42.2358 16.1289 42.592 14.4464 43.284C12.764 43.976 11.2353 44.9903 9.94762 46.2689C8.65996 47.5475 7.63859 49.0655 6.94182 50.7361C6.24505 52.4066 5.88652 54.1971 5.88672 56.0053V67.812L26.2385 52.2388V42.2358H19.7533Z" fill="url(#paint1_linear_3038_524)"/>
<path d="M44.3066 42.2297L49.2472 42.1667C50.9097 42.1667 53.3279 43.9299 53.3279 46.694C53.3279 49.4581 50.9097 51.2198 49.2472 51.2198H52.4211C62.3083 51.2198 72.0141 41.715 68.2509 33.4543C66.8849 31.7691 65.2672 30.3016 63.4539 29.1025C61.8907 32.9002 59.2477 36.1638 55.8475 38.4949C52.4474 40.826 48.4372 42.1238 44.3066 42.2297Z" fill="url(#paint2_linear_3038_524)"/>
<path d="M5.88672 56.0052C5.88652 54.197 6.24505 52.4065 6.94182 50.7359C7.63859 49.0654 8.65996 47.5474 9.94762 46.2688C11.2353 44.9901 12.764 43.9759 14.4464 43.2839C16.1289 42.5919 17.9322 42.2357 19.7533 42.2357H43.755C49.3959 42.2357 54.8058 40.0108 58.7946 36.0504C62.7833 32.0901 65.0242 26.7187 65.0242 21.1179C65.0242 15.5171 62.7833 10.1456 58.7946 6.18528C54.8058 2.22491 49.3959 8.18019e-08 43.755 8.18019e-08H19.7533C17.9323 -0.000197017 16.129 0.355786 14.4466 1.04762C12.7641 1.73945 11.2354 2.75359 9.94771 4.0321C8.66004 5.31061 7.63864 6.82845 6.94185 8.49895C6.24506 10.1694 5.88652 11.9599 5.88672 13.7679V30.354C5.88672 26.7025 7.34766 23.2006 9.94815 20.6186C12.5486 18.0366 16.0757 16.5861 19.7533 16.5861H41.3232C42.9857 16.5861 45.4039 18.3493 45.4039 21.1134C45.4039 23.8774 42.9857 25.6406 41.3232 25.6406H19.7533C16.0757 25.6406 12.5486 27.0912 9.94815 29.6732C7.34766 32.2552 5.88672 35.7571 5.88672 39.4086V56.0052Z" fill="url(#paint3_linear_3038_524)"/>
<path d="M5.88672 67.8117H51.6805C55.6927 67.8126 59.6232 66.6867 63.0184 64.564C66.4135 62.4413 69.1347 59.4085 70.8677 55.8156C72.6008 52.2228 73.275 48.2165 72.8124 44.2595C72.3499 40.3024 70.7696 36.5559 68.2539 33.4526C72.0171 41.7059 62.3113 51.2182 52.4241 51.2182H19.7533C16.0757 51.2182 12.5486 52.6687 9.94815 55.2507C7.34766 57.8327 5.88672 61.3346 5.88672 64.9861V67.8117Z" fill="url(#paint4_linear_3038_524)"/>
<path d="M4.37534 79.317C1.46298 79.317 0 78.4062 0 76.5875V76.0142C0 74.179 1.46298 73.2847 4.37534 73.2847H5.85344C6.32649 73.2847 6.42926 73.5488 6.42926 74.077C6.42926 74.6052 6.32649 74.8693 5.85344 74.8693H4.32396C2.59498 74.8693 1.9451 75.369 1.9451 76.0142V76.5875C1.9451 77.2177 2.59498 77.7309 4.32396 77.7309H7.81365C10.726 77.7309 12.189 78.6418 12.189 80.462V81.1958C12.189 83.0295 10.726 83.9254 7.81365 83.9254H0.575822C0.102771 83.9254 0 83.6613 0 83.1331C0 82.6048 0.102771 82.3407 0.575822 82.3407H7.86353C9.59251 82.3407 10.2439 81.8411 10.2439 81.1958V80.462C10.2439 79.8303 9.59251 79.317 7.86353 79.317H4.37534Z" fill="url(#paint5_linear_3038_524)"/>
<path d="M29.2083 73.8278C29.3491 73.6576 29.5281 73.5224 29.731 73.433C29.9338 73.3436 30.1549 73.3026 30.3766 73.3131C31.1005 73.3131 31.4708 73.6508 31.4708 74.3125V83.2936C31.4708 83.8518 31.1307 83.9839 30.4808 83.9839C29.831 83.9839 29.4894 83.8518 29.4894 83.2936V76.3368L23.5951 83.4256C23.2551 83.8233 22.9438 83.9839 22.4269 83.9839C21.8647 83.9839 21.4959 83.8083 21.1846 83.4256L15.2722 76.3368V83.2936C15.2722 83.8518 14.9321 83.9839 14.2822 83.9839C13.6324 83.9839 13.3059 83.8518 13.3059 83.2936V74.3125C13.3059 73.6508 13.6762 73.3131 14.385 73.3131C14.6064 73.3048 14.8267 73.3468 15.0292 73.436C15.2317 73.5252 15.411 73.6593 15.5533 73.8278L22.3543 81.9731L29.2083 73.8278Z" fill="url(#paint6_linear_3038_524)"/>
<path d="M40.8275 73.754L47.2734 82.8836C47.3383 82.984 47.3739 83.1004 47.3762 83.2197C47.3762 83.6609 46.8004 83.9985 46.2971 83.9985C46.1722 84.0058 46.0475 83.9822 45.934 83.9298C45.8206 83.8774 45.722 83.7979 45.6472 83.6984L43.9031 81.1744H35.6829L34.0431 83.6984C33.9708 83.7972 33.8746 83.8765 33.7635 83.9289C33.6523 83.9814 33.5297 84.0053 33.4068 83.9985C32.9187 83.9985 32.3489 83.6609 32.3489 83.2062C32.3533 83.0915 32.3888 82.98 32.4516 82.8836L38.5137 73.754C38.7343 73.4313 39.0895 73.2393 39.6804 73.2393C40.2713 73.2393 40.5963 73.4313 40.8275 73.754ZM36.7031 79.5958H42.8089L39.6744 75.031L36.7031 79.5958Z" fill="url(#paint7_linear_3038_524)"/>
<path d="M48.9434 73.2847H57.2558C59.9309 73.2847 61.601 74.224 61.601 75.6616V77.5118C61.601 78.9494 59.9309 79.8888 57.2558 79.8888H56.6634C54.9193 79.8888 54.2105 79.8738 53.4412 79.8303V79.8603C54.0775 80.0944 54.7576 80.3104 57.0034 81.2108L60.5672 82.6334C60.7105 82.6725 60.8357 82.7596 60.9216 82.88C61.0076 83.0003 61.0489 83.1464 61.0387 83.2936C61.0387 83.8233 60.6851 83.9839 60.0337 83.9839C59.7541 83.9839 59.1768 83.9554 58.8669 83.7783L50.219 80.0659V83.2936C50.219 83.8518 49.879 83.9839 49.2291 83.9839C48.5792 83.9839 48.2528 83.8518 48.2528 83.2936V73.9599C48.2482 73.5053 48.4704 73.2847 48.9434 73.2847ZM50.2145 74.8693V78.3327H57.0699C59.08 78.3327 59.6392 77.923 59.6392 77.3933V75.8087C59.6392 75.2804 59.077 74.8693 57.0699 74.8693H50.2145Z" fill="url(#paint8_linear_3038_524)"/>
<path d="M68.958 74.8693V83.2936C68.958 83.8518 68.618 83.9839 67.9681 83.9839C67.3182 83.9839 66.9918 83.8518 66.9918 83.2936V74.8693H62.5424C62.0693 74.8693 61.9666 74.6052 61.9666 74.077C61.9666 73.5488 62.0693 73.2847 62.5424 73.2847H73.4241C73.8971 73.2847 73.9999 73.5488 73.9999 74.077C73.9999 74.6052 73.8971 74.8693 73.4241 74.8693H68.958Z" fill="url(#paint9_linear_3038_524)"/>
<defs>
<linearGradient id="paint0_linear_3038_524" x1="19.9845" y1="9.9262" x2="12.4911" y2="43.4754" gradientUnits="userSpaceOnUse">
<stop stop-color="#00FFAF"/>
<stop offset="0.06" stop-color="#00EDAD"/>
<stop offset="0.32" stop-color="#00A6A7"/>
<stop offset="0.55" stop-color="#006EA2"/>
<stop offset="0.75" stop-color="#00469F"/>
<stop offset="0.91" stop-color="#002D9D"/>
<stop offset="1" stop-color="#00249C"/>
</linearGradient>
<linearGradient id="paint1_linear_3038_524" x1="20.2007" y1="35.09" x2="11.9543" y2="72.0148" gradientUnits="userSpaceOnUse">
<stop stop-color="#00FFAF"/>
<stop offset="0.06" stop-color="#00EDAD"/>
<stop offset="0.32" stop-color="#00A6A7"/>
<stop offset="0.55" stop-color="#006EA2"/>
<stop offset="0.75" stop-color="#00469F"/>
<stop offset="0.91" stop-color="#002D9D"/>
<stop offset="1" stop-color="#00249C"/>
</linearGradient>
<linearGradient id="paint2_linear_3038_524" x1="61.4408" y1="46.0502" x2="51.8125" y2="32.5847" gradientUnits="userSpaceOnUse">
<stop stop-color="#00FFAF"/>
<stop offset="0.06" stop-color="#00EDAD"/>
<stop offset="0.32" stop-color="#00A6A7"/>
<stop offset="0.55" stop-color="#006EA2"/>
<stop offset="0.75" stop-color="#00469F"/>
<stop offset="0.91" stop-color="#002D9D"/>
<stop offset="1" stop-color="#00249C"/>
</linearGradient>
<linearGradient id="paint3_linear_3038_524" x1="5.88672" y1="28.0026" x2="65.0242" y2="28.0026" gradientUnits="userSpaceOnUse">
<stop stop-color="#00FFAF"/>
<stop offset="0.06" stop-color="#00EDAD"/>
<stop offset="0.32" stop-color="#00A6A7"/>
<stop offset="0.55" stop-color="#006EA2"/>
<stop offset="0.75" stop-color="#00469F"/>
<stop offset="0.91" stop-color="#002D9D"/>
<stop offset="1" stop-color="#00249C"/>
</linearGradient>
<linearGradient id="paint4_linear_3038_524" x1="5.88672" y1="50.6329" x2="72.9481" y2="50.6329" gradientUnits="userSpaceOnUse">
<stop stop-color="#00FFAF"/>
<stop offset="0.06" stop-color="#00EDAD"/>
<stop offset="0.32" stop-color="#00A6A7"/>
<stop offset="0.55" stop-color="#006EA2"/>
<stop offset="0.75" stop-color="#00469F"/>
<stop offset="0.91" stop-color="#002D9D"/>
<stop offset="1" stop-color="#00249C"/>
</linearGradient>
<linearGradient id="paint5_linear_3038_524" x1="-1.02771" y1="78.6043" x2="96.6687" y2="78.6043" gradientUnits="userSpaceOnUse">
<stop stop-color="#00FFDD"/>
<stop offset="0.16" stop-color="#2BCAE4"/>
<stop offset="0.39" stop-color="#6383EE"/>
<stop offset="0.6" stop-color="#904BF5"/>
<stop offset="0.78" stop-color="#B123FA"/>
<stop offset="0.91" stop-color="#C50AFE"/>
<stop offset="1" stop-color="#CC01FF"/>
</linearGradient>
<linearGradient id="paint6_linear_3038_524" x1="-1.02769" y1="78.6493" x2="96.6687" y2="78.6493" gradientUnits="userSpaceOnUse">
<stop stop-color="#00FFDD"/>
<stop offset="0.16" stop-color="#2BCAE4"/>
<stop offset="0.39" stop-color="#6383EE"/>
<stop offset="0.6" stop-color="#904BF5"/>
<stop offset="0.78" stop-color="#B123FA"/>
<stop offset="0.91" stop-color="#C50AFE"/>
<stop offset="1" stop-color="#CC01FF"/>
</linearGradient>
<linearGradient id="paint7_linear_3038_524" x1="-1.02767" y1="78.6189" x2="96.6687" y2="78.6189" gradientUnits="userSpaceOnUse">
<stop stop-color="#00FFDD"/>
<stop offset="0.16" stop-color="#2BCAE4"/>
<stop offset="0.39" stop-color="#6383EE"/>
<stop offset="0.6" stop-color="#904BF5"/>
<stop offset="0.78" stop-color="#B123FA"/>
<stop offset="0.91" stop-color="#C50AFE"/>
<stop offset="1" stop-color="#CC01FF"/>
</linearGradient>
<linearGradient id="paint8_linear_3038_524" x1="-1.02769" y1="78.6343" x2="96.6687" y2="78.6343" gradientUnits="userSpaceOnUse">
<stop stop-color="#00FFDD"/>
<stop offset="0.16" stop-color="#2BCAE4"/>
<stop offset="0.39" stop-color="#6383EE"/>
<stop offset="0.6" stop-color="#904BF5"/>
<stop offset="0.78" stop-color="#B123FA"/>
<stop offset="0.91" stop-color="#C50AFE"/>
<stop offset="1" stop-color="#CC01FF"/>
</linearGradient>
<linearGradient id="paint9_linear_3038_524" x1="-1.02782" y1="78.6343" x2="96.6685" y2="78.6343" gradientUnits="userSpaceOnUse">
<stop stop-color="#00FFDD"/>
<stop offset="0.16" stop-color="#2BCAE4"/>
<stop offset="0.39" stop-color="#6383EE"/>
<stop offset="0.6" stop-color="#904BF5"/>
<stop offset="0.78" stop-color="#B123FA"/>
<stop offset="0.91" stop-color="#C50AFE"/>
<stop offset="1" stop-color="#CC01FF"/>
</linearGradient>
</defs>
</svg>
