<svg width="104" height="34" viewBox="0 0 104 34" fill="none" xmlns="http://www.w3.org/2000/svg">
<path d="M47.8251 10V3H51.3351C51.7951 3 52.1985 3.09333 52.5451 3.28C52.8985 3.46667 53.1751 3.72667 53.3751 4.06C53.5751 4.38667 53.6751 4.76667 53.6751 5.2C53.6751 5.61333 53.5751 5.98333 53.3751 6.31C53.1751 6.63667 52.8985 6.89333 52.5451 7.08C52.1918 7.26667 51.7885 7.36 51.3351 7.36H49.2751V10H47.8251ZM49.2751 6.16H51.1751C51.4885 6.16 51.7385 6.07333 51.9251 5.9C52.1185 5.72667 52.2151 5.49667 52.2151 5.21C52.2151 4.91667 52.1185 4.68333 51.9251 4.51C51.7385 4.33667 51.4885 4.25 51.1751 4.25H49.2751V6.16ZM56.5935 10.1C56.0735 10.1 55.6035 9.98 55.1835 9.74C54.7635 9.5 54.4302 9.17667 54.1835 8.77C53.9368 8.36333 53.8135 7.90667 53.8135 7.4C53.8135 6.89333 53.9335 6.43667 54.1735 6.03C54.4202 5.61667 54.7535 5.29 55.1735 5.05C55.6002 4.81 56.0735 4.69 56.5935 4.69C57.1135 4.69 57.5835 4.81 58.0035 5.05C58.4302 5.29 58.7635 5.61667 59.0035 6.03C59.2502 6.43667 59.3735 6.89333 59.3735 7.4C59.3735 7.90667 59.2502 8.36333 59.0035 8.77C58.7635 9.17667 58.4335 9.5 58.0135 9.74C57.5935 9.98 57.1202 10.1 56.5935 10.1ZM56.5935 8.91C56.8668 8.91 57.1102 8.84333 57.3235 8.71C57.5435 8.57667 57.7168 8.39667 57.8435 8.17C57.9768 7.93667 58.0435 7.68 58.0435 7.4C58.0435 7.11333 57.9768 6.85667 57.8435 6.63C57.7168 6.40333 57.5435 6.22333 57.3235 6.09C57.1102 5.95 56.8668 5.88 56.5935 5.88C56.3268 5.88 56.0835 5.95 55.8635 6.09C55.6435 6.22333 55.4702 6.40333 55.3435 6.63C55.2168 6.85667 55.1535 7.11333 55.1535 7.4C55.1535 7.68 55.2168 7.93667 55.3435 8.17C55.4702 8.39667 55.6435 8.57667 55.8635 8.71C56.0835 8.84333 56.3268 8.91 56.5935 8.91ZM61.108 10L59.678 4.79H60.978L61.838 8.15L62.878 4.79H64.028L65.058 8.16L65.918 4.79H67.198L65.758 10H64.448L63.438 6.67L62.428 10H61.108ZM70.2949 10.1C69.7749 10.1 69.3016 9.98 68.8749 9.74C68.4549 9.5 68.1216 9.17667 67.8749 8.77C67.6282 8.36333 67.5049 7.90667 67.5049 7.4C67.5049 6.89333 67.6216 6.43667 67.8549 6.03C68.0949 5.62333 68.4182 5.3 68.8249 5.06C69.2316 4.82 69.6849 4.7 70.1849 4.7C70.6849 4.7 71.1282 4.82333 71.5149 5.07C71.9016 5.31667 72.2049 5.65 72.4249 6.07C72.6516 6.49 72.7649 6.96667 72.7649 7.5V7.86H68.9049C68.9649 8.06667 69.0616 8.25333 69.1949 8.42C69.3349 8.58667 69.5049 8.71667 69.7049 8.81C69.9116 8.90333 70.1316 8.95 70.3649 8.95C70.5982 8.95 70.8116 8.91333 71.0049 8.84C71.2049 8.76667 71.3749 8.66333 71.5149 8.53L72.4149 9.35C72.0949 9.61 71.7649 9.8 71.4249 9.92C71.0916 10.04 70.7149 10.1 70.2949 10.1ZM68.8849 6.88H71.4149C71.3682 6.67333 71.2816 6.49333 71.1549 6.34C71.0349 6.18 70.8882 6.05667 70.7149 5.97C70.5482 5.87667 70.3616 5.83 70.1549 5.83C69.9416 5.83 69.7482 5.87333 69.5749 5.96C69.4016 6.04667 69.2549 6.17 69.1349 6.33C69.0216 6.48333 68.9382 6.66667 68.8849 6.88ZM73.6043 10V4.79H74.9743V5.37C75.141 5.14333 75.341 4.97 75.5743 4.85C75.8076 4.73 76.071 4.67 76.3643 4.67C76.6176 4.67667 76.8076 4.71667 76.9343 4.79V5.99C76.8343 5.94333 76.7243 5.91 76.6043 5.89C76.4843 5.86333 76.361 5.85 76.2343 5.85C75.9676 5.85 75.7243 5.91667 75.5043 6.05C75.2843 6.18333 75.1076 6.37333 74.9743 6.62V10H73.6043ZM80.0312 10.1C79.5112 10.1 79.0379 9.98 78.6112 9.74C78.1912 9.5 77.8579 9.17667 77.6112 8.77C77.3646 8.36333 77.2412 7.90667 77.2412 7.4C77.2412 6.89333 77.3579 6.43667 77.5912 6.03C77.8312 5.62333 78.1546 5.3 78.5612 5.06C78.9679 4.82 79.4212 4.7 79.9212 4.7C80.4212 4.7 80.8646 4.82333 81.2512 5.07C81.6379 5.31667 81.9412 5.65 82.1612 6.07C82.3879 6.49 82.5012 6.96667 82.5012 7.5V7.86H78.6412C78.7012 8.06667 78.7979 8.25333 78.9312 8.42C79.0712 8.58667 79.2412 8.71667 79.4412 8.81C79.6479 8.90333 79.8679 8.95 80.1012 8.95C80.3346 8.95 80.5479 8.91333 80.7412 8.84C80.9412 8.76667 81.1112 8.66333 81.2512 8.53L82.1512 9.35C81.8312 9.61 81.5012 9.8 81.1612 9.92C80.8279 10.04 80.4512 10.1 80.0312 10.1ZM78.6212 6.88H81.1512C81.1046 6.67333 81.0179 6.49333 80.8912 6.34C80.7712 6.18 80.6246 6.05667 80.4512 5.97C80.2846 5.87667 80.0979 5.83 79.8912 5.83C79.6779 5.83 79.4846 5.87333 79.3112 5.96C79.1379 6.04667 78.9912 6.17 78.8712 6.33C78.7579 6.48333 78.6746 6.66667 78.6212 6.88ZM85.7897 10.07C85.2963 10.07 84.8497 9.95 84.4497 9.71C84.0497 9.47 83.7297 9.15 83.4897 8.75C83.2563 8.34333 83.1397 7.89 83.1397 7.39C83.1397 6.89 83.2563 6.44 83.4897 6.04C83.7297 5.63333 84.053 5.31333 84.4597 5.08C84.8663 4.84 85.323 4.72 85.8297 4.72C86.0897 4.72 86.3397 4.75667 86.5797 4.83C86.8197 4.89667 87.043 4.99667 87.2497 5.13V3L88.6197 2.77V10H87.2697V9.57C86.843 9.90333 86.3497 10.07 85.7897 10.07ZM86.0097 8.9C86.263 8.9 86.493 8.86 86.6997 8.78C86.913 8.69333 87.0963 8.56667 87.2497 8.4V6.37C87.0963 6.21667 86.913 6.09667 86.6997 6.01C86.4863 5.92333 86.2563 5.88 86.0097 5.88C85.723 5.88 85.463 5.94667 85.2297 6.08C85.003 6.20667 84.823 6.38667 84.6897 6.62C84.5563 6.84667 84.4897 7.10333 84.4897 7.39C84.4897 7.67667 84.5563 7.93333 84.6897 8.16C84.823 8.38667 85.003 8.56667 85.2297 8.7C85.463 8.83333 85.723 8.9 86.0097 8.9ZM91.7 10V3L93.07 2.77V5.21C93.4833 4.88333 93.97 4.72 94.53 4.72C95.0233 4.72 95.47 4.84 95.87 5.08C96.27 5.32 96.5867 5.64333 96.82 6.05C97.06 6.45 97.18 6.9 97.18 7.4C97.18 7.9 97.06 8.35333 96.82 8.76C96.58 9.16 96.2567 9.48 95.85 9.72C95.4433 9.95333 94.99 10.07 94.49 10.07C94.23 10.07 93.9767 10.0333 93.73 9.96C93.4833 9.88667 93.2567 9.78 93.05 9.64V10H91.7ZM94.31 8.91C94.5967 8.91 94.8533 8.84333 95.08 8.71C95.3133 8.57667 95.4967 8.39667 95.63 8.17C95.7633 7.94333 95.83 7.68667 95.83 7.4C95.83 7.11333 95.7633 6.85667 95.63 6.63C95.4967 6.39667 95.3133 6.21667 95.08 6.09C94.8533 5.95667 94.5967 5.89 94.31 5.89C94.0567 5.89 93.8233 5.93333 93.61 6.02C93.4033 6.1 93.2233 6.22333 93.07 6.39V8.42C93.2167 8.57333 93.3967 8.69333 93.61 8.78C93.83 8.86667 94.0633 8.91 94.31 8.91ZM98.3721 12.15C98.2521 12.15 98.1354 12.1433 98.0221 12.13C97.9154 12.1233 97.8254 12.1133 97.7521 12.1V10.92C97.8854 10.9467 98.0454 10.96 98.2321 10.96C98.7321 10.96 99.0788 10.7233 99.2721 10.25L99.3521 10.05L97.3221 4.79H98.8321L100.132 8.34L101.602 4.79H103.082L100.682 10.42C100.502 10.84 100.305 11.1767 100.092 11.43C99.8788 11.6833 99.6321 11.8667 99.3521 11.98C99.0788 12.0933 98.7521 12.15 98.3721 12.15Z" fill="black"/>
<path d="M28.3085 24.3192C25.176 24.3192 23.6024 23.3233 23.6024 21.3349V20.7082C23.6024 18.7018 25.176 17.724 28.3085 17.724H29.8983C30.4071 17.724 30.5176 18.0127 30.5176 18.5902C30.5176 19.1677 30.4071 19.4564 29.8983 19.4564H28.2532C26.3935 19.4564 25.6946 20.0028 25.6946 20.7082V21.3349C25.6946 22.024 26.3935 22.5851 28.2532 22.5851H32.0066C35.1391 22.5851 36.7127 23.5809 36.7127 25.571V26.3732C36.7127 28.3781 35.1391 29.3575 32.0066 29.3575H24.2218C23.713 29.3575 23.6024 29.0688 23.6024 28.4913C23.6024 27.9138 23.713 27.625 24.2218 27.625H32.0603C33.9199 27.625 34.6205 27.0787 34.6205 26.3732V25.571C34.6205 24.8803 33.9199 24.3192 32.0603 24.3192H28.3085Z" fill="url(#paint0_linear_0_3)"/>
<path d="M55.0182 18.3178C55.1697 18.1317 55.3622 17.9839 55.5804 17.8862C55.7986 17.7885 56.0364 17.7436 56.2748 17.7551C57.0534 17.7551 57.4517 18.1243 57.4517 18.8478V28.6668C57.4517 29.2771 57.0859 29.4215 56.3869 29.4215C55.6879 29.4215 55.3206 29.2771 55.3206 28.6668V21.0609L48.9808 28.8112C48.6151 29.2459 48.2802 29.4215 47.7243 29.4215C47.1196 29.4215 46.7229 29.2295 46.3881 28.8112L40.0288 21.0609V28.6668C40.0288 29.2771 39.6631 29.4215 38.9641 29.4215C38.2651 29.4215 37.914 29.2771 37.914 28.6668V18.8478C37.914 18.1243 38.3122 17.7551 39.0746 17.7551C39.3127 17.746 39.5497 17.7919 39.7675 17.8895C39.9853 17.987 40.1781 18.1335 40.3312 18.3178L47.6462 27.2231L55.0182 18.3178Z" fill="url(#paint1_linear_0_3)"/>
<path d="M67.5156 18.2374L74.4486 28.2189C74.5184 28.3287 74.5567 28.4559 74.5591 28.5864C74.5591 29.0687 73.9398 29.4378 73.3985 29.4378C73.2642 29.4458 73.13 29.42 73.008 29.3627C72.886 29.3055 72.78 29.2185 72.6995 29.1097L70.8236 26.3502H61.9821L60.2184 29.1097C60.1406 29.2178 60.0372 29.3045 59.9176 29.3618C59.7981 29.4191 59.6662 29.4453 59.534 29.4378C59.009 29.4378 58.3961 29.0687 58.3961 28.5716C58.4009 28.4461 58.4391 28.3243 58.5067 28.2189L65.0268 18.2374C65.2641 17.8847 65.6461 17.6747 66.2817 17.6747C66.9173 17.6747 67.2668 17.8847 67.5156 18.2374ZM63.0794 24.6243H69.6467L66.2752 19.6336L63.0794 24.6243Z" fill="url(#paint2_linear_0_3)"/>
<path d="M76.2449 17.724H85.1855C88.0627 17.724 89.859 18.751 89.859 20.3227V22.3455C89.859 23.9172 88.0627 24.9443 85.1855 24.9443H84.5483C82.6724 24.9443 81.91 24.9279 81.0825 24.8803V24.9131C81.7669 25.169 82.4984 25.4053 84.914 26.3896L88.7471 27.9449C88.9012 27.9877 89.0359 28.083 89.1283 28.2145C89.2208 28.3461 89.2653 28.5059 89.2543 28.6668C89.2543 29.2459 88.8739 29.4215 88.1733 29.4215C87.8725 29.4215 87.2516 29.3903 86.9183 29.1967L77.6168 25.1379V28.6668C77.6168 29.2771 77.2511 29.4215 76.5521 29.4215C75.8531 29.4215 75.502 29.2771 75.502 28.6668V18.4622C75.4971 17.9651 75.736 17.724 76.2449 17.724ZM77.612 19.4564V23.243H84.9855C87.1475 23.243 87.749 22.7951 87.749 22.2159V20.4834C87.749 19.906 87.1443 19.4564 84.9855 19.4564H77.612Z" fill="url(#paint3_linear_0_3)"/>
<path d="M97.7722 19.4564V28.6668C97.7722 29.2771 97.4065 29.4215 96.7075 29.4215C96.0085 29.4215 95.6574 29.2771 95.6574 28.6668V19.4564H90.8717C90.3629 19.4564 90.2524 19.1677 90.2524 18.5902C90.2524 18.0127 90.3629 17.724 90.8717 17.724H102.576C103.085 17.724 103.195 18.0127 103.195 18.5902C103.195 19.1677 103.085 19.4564 102.576 19.4564H97.7722Z" fill="url(#paint4_linear_0_3)"/>
<path d="M4.05292 20.6191H5.9484V17.929H4.05292C2.97825 17.929 1.94757 18.3598 1.18754 19.1266C0.42751 19.8934 0.000351391 20.9335 0 22.0181V24.7082C0.000351391 23.6236 0.42751 22.5835 1.18754 21.8167C1.94757 21.0499 2.97825 20.6191 4.05292 20.6191Z" fill="url(#paint5_linear_0_3)"/>
<path d="M4.05292 25.5481C3.52064 25.5481 2.99358 25.6539 2.50183 25.8595C2.01008 26.0651 1.56327 26.3665 1.18692 26.7463C0.810562 27.1262 0.512036 27.5772 0.308384 28.0735C0.104732 28.5698 -5.79894e-05 29.1018 2.40748e-08 29.639V33.1467L5.9484 28.52V25.5481H4.05292Z" fill="url(#paint6_linear_0_3)"/>
<path d="M11.2293 25.5463L12.6734 25.5276C13.1593 25.5276 13.866 26.0514 13.866 26.8726C13.866 27.6939 13.1593 28.2172 12.6734 28.2172H13.601C16.4908 28.2172 19.3276 25.3934 18.2277 22.9392C17.8285 22.4385 17.3556 22.0025 16.8257 21.6463C16.3688 22.7746 15.5963 23.7442 14.6025 24.4367C13.6087 25.1293 12.4366 25.5148 11.2293 25.5463Z" fill="url(#paint7_linear_0_3)"/>
<path d="M2.40801e-08 29.639C-5.79894e-05 29.1018 0.104732 28.5698 0.308384 28.0735C0.512036 27.5772 0.810562 27.1262 1.18692 26.7463C1.56327 26.3664 2.01008 26.0651 2.50183 25.8595C2.99358 25.6539 3.52064 25.5481 4.05292 25.5481H11.0681C12.7168 25.5481 14.298 24.8871 15.4639 23.7105C16.6297 22.5339 17.2846 20.938 17.2846 19.2741C17.2846 17.6101 16.6297 16.0142 15.4639 14.8376C14.298 13.661 12.7168 13 11.0681 13H4.05292C3.52066 12.9999 2.99361 13.1057 2.50186 13.3112C2.01012 13.5168 1.5633 13.8181 1.18694 14.1979C0.810583 14.5778 0.51205 15.0287 0.308392 15.525C0.104734 16.0213 -5.79966e-05 16.5532 2.40801e-08 17.0904V22.0181C2.40801e-08 20.9332 0.427003 19.8928 1.18707 19.1257C1.94714 18.3586 2.97802 17.9277 4.05292 17.9277H10.3574C10.8433 17.9277 11.55 18.4515 11.55 19.2727C11.55 20.0939 10.8433 20.6178 10.3574 20.6178H4.05292C2.97802 20.6178 1.94714 21.0487 1.18707 21.8158C0.427003 22.5829 2.40801e-08 23.6233 2.40801e-08 24.7082V29.639Z" fill="url(#paint8_linear_0_3)"/>
<path d="M0 33.1467H13.3846C14.5572 33.1469 15.7061 32.8124 16.6984 32.1818C17.6907 31.5511 18.4861 30.6501 18.9926 29.5827C19.4991 28.5152 19.6962 27.325 19.561 26.1494C19.4258 24.9737 18.9639 23.8607 18.2286 22.9387C19.3285 25.3907 16.4917 28.2168 13.6019 28.2168H4.05292C2.97802 28.2168 1.94714 28.6477 1.18707 29.4148C0.427003 30.1819 0 31.2223 0 32.3072V33.1467Z" fill="url(#paint9_linear_0_3)"/>
<defs>
<linearGradient id="paint0_linear_0_3" x1="22.4971" y1="23.5399" x2="127.577" y2="23.5399" gradientUnits="userSpaceOnUse">
<stop stop-color="#00FFDD"/>
<stop offset="0.16" stop-color="#2BCAE4"/>
<stop offset="0.39" stop-color="#6383EE"/>
<stop offset="0.6" stop-color="#904BF5"/>
<stop offset="0.78" stop-color="#B123FA"/>
<stop offset="0.91" stop-color="#C50AFE"/>
<stop offset="1" stop-color="#CC01FF"/>
</linearGradient>
<linearGradient id="paint1_linear_0_3" x1="22.4971" y1="23.5891" x2="127.577" y2="23.5891" gradientUnits="userSpaceOnUse">
<stop stop-color="#00FFDD"/>
<stop offset="0.16" stop-color="#2BCAE4"/>
<stop offset="0.39" stop-color="#6383EE"/>
<stop offset="0.6" stop-color="#904BF5"/>
<stop offset="0.78" stop-color="#B123FA"/>
<stop offset="0.91" stop-color="#C50AFE"/>
<stop offset="1" stop-color="#CC01FF"/>
</linearGradient>
<linearGradient id="paint2_linear_0_3" x1="22.4971" y1="23.5563" x2="127.577" y2="23.5563" gradientUnits="userSpaceOnUse">
<stop stop-color="#00FFDD"/>
<stop offset="0.16" stop-color="#2BCAE4"/>
<stop offset="0.39" stop-color="#6383EE"/>
<stop offset="0.6" stop-color="#904BF5"/>
<stop offset="0.78" stop-color="#B123FA"/>
<stop offset="0.91" stop-color="#C50AFE"/>
<stop offset="1" stop-color="#CC01FF"/>
</linearGradient>
<linearGradient id="paint3_linear_0_3" x1="22.4971" y1="23.5727" x2="127.577" y2="23.5727" gradientUnits="userSpaceOnUse">
<stop stop-color="#00FFDD"/>
<stop offset="0.16" stop-color="#2BCAE4"/>
<stop offset="0.39" stop-color="#6383EE"/>
<stop offset="0.6" stop-color="#904BF5"/>
<stop offset="0.78" stop-color="#B123FA"/>
<stop offset="0.91" stop-color="#C50AFE"/>
<stop offset="1" stop-color="#CC01FF"/>
</linearGradient>
<linearGradient id="paint4_linear_0_3" x1="22.4971" y1="23.5727" x2="127.577" y2="23.5727" gradientUnits="userSpaceOnUse">
<stop stop-color="#00FFDD"/>
<stop offset="0.16" stop-color="#2BCAE4"/>
<stop offset="0.39" stop-color="#6383EE"/>
<stop offset="0.6" stop-color="#904BF5"/>
<stop offset="0.78" stop-color="#B123FA"/>
<stop offset="0.91" stop-color="#C50AFE"/>
<stop offset="1" stop-color="#CC01FF"/>
</linearGradient>
<linearGradient id="paint5_linear_0_3" x1="4.1205" y1="15.9491" x2="1.86109" y2="25.9007" gradientUnits="userSpaceOnUse">
<stop stop-color="#00FFAF"/>
<stop offset="0.06" stop-color="#00EDAD"/>
<stop offset="0.32" stop-color="#00A6A7"/>
<stop offset="0.55" stop-color="#006EA2"/>
<stop offset="0.75" stop-color="#00469F"/>
<stop offset="0.91" stop-color="#002D9D"/>
<stop offset="1" stop-color="#00249C"/>
</linearGradient>
<linearGradient id="paint6_linear_0_3" x1="4.18367" y1="23.4251" x2="1.69724" y2="34.3781" gradientUnits="userSpaceOnUse">
<stop stop-color="#00FFAF"/>
<stop offset="0.06" stop-color="#00EDAD"/>
<stop offset="0.32" stop-color="#00A6A7"/>
<stop offset="0.55" stop-color="#006EA2"/>
<stop offset="0.75" stop-color="#00469F"/>
<stop offset="0.91" stop-color="#002D9D"/>
<stop offset="1" stop-color="#00249C"/>
</linearGradient>
<linearGradient id="paint7_linear_0_3" x1="16.2373" y1="26.6814" x2="13.3619" y2="22.7253" gradientUnits="userSpaceOnUse">
<stop stop-color="#00FFAF"/>
<stop offset="0.06" stop-color="#00EDAD"/>
<stop offset="0.32" stop-color="#00A6A7"/>
<stop offset="0.55" stop-color="#006EA2"/>
<stop offset="0.75" stop-color="#00469F"/>
<stop offset="0.91" stop-color="#002D9D"/>
<stop offset="1" stop-color="#00249C"/>
</linearGradient>
<linearGradient id="paint8_linear_0_3" x1="2.40802e-08" y1="21.3195" x2="17.2846" y2="21.3195" gradientUnits="userSpaceOnUse">
<stop stop-color="#00FFAF"/>
<stop offset="0.06" stop-color="#00EDAD"/>
<stop offset="0.32" stop-color="#00A6A7"/>
<stop offset="0.55" stop-color="#006EA2"/>
<stop offset="0.75" stop-color="#00469F"/>
<stop offset="0.91" stop-color="#002D9D"/>
<stop offset="1" stop-color="#00249C"/>
</linearGradient>
<linearGradient id="paint9_linear_0_3" x1="0" y1="28.0429" x2="19.6007" y2="28.0429" gradientUnits="userSpaceOnUse">
<stop stop-color="#00FFAF"/>
<stop offset="0.06" stop-color="#00EDAD"/>
<stop offset="0.32" stop-color="#00A6A7"/>
<stop offset="0.55" stop-color="#006EA2"/>
<stop offset="0.75" stop-color="#00469F"/>
<stop offset="0.91" stop-color="#002D9D"/>
<stop offset="1" stop-color="#00249C"/>
</linearGradient>
</defs>
</svg>
