<svg width="108" height="38" viewBox="0 0 108 38" fill="none" xmlns="http://www.w3.org/2000/svg">
<path d="M51.8251 10V3H55.3351C55.7951 3 56.1985 3.09333 56.5451 3.28C56.8985 3.46667 57.1751 3.72667 57.3751 4.06C57.5751 4.38667 57.6751 4.76667 57.6751 5.2C57.6751 5.61333 57.5751 5.98333 57.3751 6.31C57.1751 6.63667 56.8985 6.89333 56.5451 7.08C56.1918 7.26667 55.7885 7.36 55.3351 7.36H53.2751V10H51.8251ZM53.2751 6.16H55.1751C55.4885 6.16 55.7385 6.07333 55.9251 5.9C56.1185 5.72667 56.2151 5.49667 56.2151 5.21C56.2151 4.91667 56.1185 4.68333 55.9251 4.51C55.7385 4.33667 55.4885 4.25 55.1751 4.25H53.2751V6.16ZM60.5935 10.1C60.0735 10.1 59.6035 9.98 59.1835 9.74C58.7635 9.5 58.4302 9.17667 58.1835 8.77C57.9368 8.36333 57.8135 7.90667 57.8135 7.4C57.8135 6.89333 57.9335 6.43667 58.1735 6.03C58.4202 5.61667 58.7535 5.29 59.1735 5.05C59.6002 4.81 60.0735 4.69 60.5935 4.69C61.1135 4.69 61.5835 4.81 62.0035 5.05C62.4302 5.29 62.7635 5.61667 63.0035 6.03C63.2502 6.43667 63.3735 6.89333 63.3735 7.4C63.3735 7.90667 63.2502 8.36333 63.0035 8.77C62.7635 9.17667 62.4335 9.5 62.0135 9.74C61.5935 9.98 61.1202 10.1 60.5935 10.1ZM60.5935 8.91C60.8668 8.91 61.1102 8.84333 61.3235 8.71C61.5435 8.57667 61.7168 8.39667 61.8435 8.17C61.9768 7.93667 62.0435 7.68 62.0435 7.4C62.0435 7.11333 61.9768 6.85667 61.8435 6.63C61.7168 6.40333 61.5435 6.22333 61.3235 6.09C61.1102 5.95 60.8668 5.88 60.5935 5.88C60.3268 5.88 60.0835 5.95 59.8635 6.09C59.6435 6.22333 59.4702 6.40333 59.3435 6.63C59.2168 6.85667 59.1535 7.11333 59.1535 7.4C59.1535 7.68 59.2168 7.93667 59.3435 8.17C59.4702 8.39667 59.6435 8.57667 59.8635 8.71C60.0835 8.84333 60.3268 8.91 60.5935 8.91ZM65.1079 10L63.6779 4.79H64.9779L65.8379 8.15L66.8779 4.79H68.0279L69.0579 8.16L69.9179 4.79H71.1979L69.7579 10H68.4479L67.4379 6.67L66.4279 10H65.1079ZM74.2949 10.1C73.7749 10.1 73.3016 9.98 72.8749 9.74C72.4549 9.5 72.1216 9.17667 71.8749 8.77C71.6282 8.36333 71.5049 7.90667 71.5049 7.4C71.5049 6.89333 71.6216 6.43667 71.8549 6.03C72.0949 5.62333 72.4182 5.3 72.8249 5.06C73.2316 4.82 73.6849 4.7 74.1849 4.7C74.6849 4.7 75.1282 4.82333 75.5149 5.07C75.9016 5.31667 76.2049 5.65 76.4249 6.07C76.6516 6.49 76.7649 6.96667 76.7649 7.5V7.86H72.9049C72.9649 8.06667 73.0616 8.25333 73.1949 8.42C73.3349 8.58667 73.5049 8.71667 73.7049 8.81C73.9116 8.90333 74.1316 8.95 74.3649 8.95C74.5982 8.95 74.8116 8.91333 75.0049 8.84C75.2049 8.76667 75.3749 8.66333 75.5149 8.53L76.4149 9.35C76.0949 9.61 75.7649 9.8 75.4249 9.92C75.0916 10.04 74.7149 10.1 74.2949 10.1ZM72.8849 6.88H75.4149C75.3682 6.67333 75.2816 6.49333 75.1549 6.34C75.0349 6.18 74.8882 6.05667 74.7149 5.97C74.5482 5.87667 74.3616 5.83 74.1549 5.83C73.9416 5.83 73.7482 5.87333 73.5749 5.96C73.4016 6.04667 73.2549 6.17 73.1349 6.33C73.0216 6.48333 72.9382 6.66667 72.8849 6.88ZM77.6043 10V4.79H78.9743V5.37C79.1409 5.14333 79.3409 4.97 79.5743 4.85C79.8076 4.73 80.0709 4.67 80.3643 4.67C80.6176 4.67667 80.8076 4.71667 80.9343 4.79V5.99C80.8343 5.94333 80.7243 5.91 80.6043 5.89C80.4843 5.86333 80.3609 5.85 80.2343 5.85C79.9676 5.85 79.7243 5.91667 79.5043 6.05C79.2843 6.18333 79.1076 6.37333 78.9743 6.62V10H77.6043ZM84.0312 10.1C83.5112 10.1 83.0379 9.98 82.6112 9.74C82.1912 9.5 81.8579 9.17667 81.6112 8.77C81.3646 8.36333 81.2412 7.90667 81.2412 7.4C81.2412 6.89333 81.3579 6.43667 81.5912 6.03C81.8312 5.62333 82.1546 5.3 82.5612 5.06C82.9679 4.82 83.4212 4.7 83.9212 4.7C84.4212 4.7 84.8646 4.82333 85.2512 5.07C85.6379 5.31667 85.9412 5.65 86.1612 6.07C86.3879 6.49 86.5012 6.96667 86.5012 7.5V7.86H82.6412C82.7012 8.06667 82.7979 8.25333 82.9312 8.42C83.0712 8.58667 83.2412 8.71667 83.4412 8.81C83.6479 8.90333 83.8679 8.95 84.1012 8.95C84.3346 8.95 84.5479 8.91333 84.7412 8.84C84.9412 8.76667 85.1112 8.66333 85.2512 8.53L86.1512 9.35C85.8312 9.61 85.5012 9.8 85.1612 9.92C84.8279 10.04 84.4512 10.1 84.0312 10.1ZM82.6212 6.88H85.1512C85.1046 6.67333 85.0179 6.49333 84.8912 6.34C84.7712 6.18 84.6246 6.05667 84.4512 5.97C84.2846 5.87667 84.0979 5.83 83.8912 5.83C83.6779 5.83 83.4846 5.87333 83.3112 5.96C83.1379 6.04667 82.9912 6.17 82.8712 6.33C82.7579 6.48333 82.6746 6.66667 82.6212 6.88ZM89.7897 10.07C89.2963 10.07 88.8497 9.95 88.4497 9.71C88.0497 9.47 87.7297 9.15 87.4897 8.75C87.2563 8.34333 87.1397 7.89 87.1397 7.39C87.1397 6.89 87.2563 6.44 87.4897 6.04C87.7297 5.63333 88.053 5.31333 88.4597 5.08C88.8663 4.84 89.323 4.72 89.8297 4.72C90.0897 4.72 90.3397 4.75667 90.5797 4.83C90.8197 4.89667 91.043 4.99667 91.2497 5.13V3L92.6197 2.77V10H91.2697V9.57C90.843 9.90333 90.3497 10.07 89.7897 10.07ZM90.0097 8.9C90.263 8.9 90.493 8.86 90.6997 8.78C90.913 8.69333 91.0963 8.56667 91.2497 8.4V6.37C91.0963 6.21667 90.913 6.09667 90.6997 6.01C90.4863 5.92333 90.2563 5.88 90.0097 5.88C89.723 5.88 89.463 5.94667 89.2297 6.08C89.003 6.20667 88.823 6.38667 88.6897 6.62C88.5563 6.84667 88.4897 7.10333 88.4897 7.39C88.4897 7.67667 88.5563 7.93333 88.6897 8.16C88.823 8.38667 89.003 8.56667 89.2297 8.7C89.463 8.83333 89.723 8.9 90.0097 8.9ZM95.7 10V3L97.07 2.77V5.21C97.4833 4.88333 97.97 4.72 98.53 4.72C99.0233 4.72 99.47 4.84 99.87 5.08C100.27 5.32 100.587 5.64333 100.82 6.05C101.06 6.45 101.18 6.9 101.18 7.4C101.18 7.9 101.06 8.35333 100.82 8.76C100.58 9.16 100.257 9.48 99.85 9.72C99.4433 9.95333 98.99 10.07 98.49 10.07C98.23 10.07 97.9766 10.0333 97.73 9.96C97.4833 9.88667 97.2566 9.78 97.05 9.64V10H95.7ZM98.31 8.91C98.5966 8.91 98.8533 8.84333 99.08 8.71C99.3133 8.57667 99.4966 8.39667 99.63 8.17C99.7633 7.94333 99.83 7.68667 99.83 7.4C99.83 7.11333 99.7633 6.85667 99.63 6.63C99.4966 6.39667 99.3133 6.21667 99.08 6.09C98.8533 5.95667 98.5966 5.89 98.31 5.89C98.0566 5.89 97.8233 5.93333 97.61 6.02C97.4033 6.1 97.2233 6.22333 97.07 6.39V8.42C97.2166 8.57333 97.3966 8.69333 97.61 8.78C97.83 8.86667 98.0633 8.91 98.31 8.91ZM102.372 12.15C102.252 12.15 102.135 12.1433 102.022 12.13C101.915 12.1233 101.825 12.1133 101.752 12.1V10.92C101.885 10.9467 102.045 10.96 102.232 10.96C102.732 10.96 103.079 10.7233 103.272 10.25L103.352 10.05L101.322 4.79H102.832L104.132 8.34L105.602 4.79H107.082L104.682 10.42C104.502 10.84 104.305 11.1767 104.092 11.43C103.879 11.6833 103.632 11.8667 103.352 11.98C103.079 12.0933 102.752 12.15 102.372 12.15Z" fill="white"/>
<path d="M32.3085 27.5944C30.7459 27.5944 29.5807 27.3457 28.8075 26.8557C28.0382 26.3681 27.6524 25.6386 27.6524 24.6601V24.0334C27.6524 23.0458 28.0383 22.3165 28.8075 21.8312C29.5806 21.3434 30.7458 21.0992 32.3085 21.0992H33.8983C34.1428 21.0992 34.2777 21.1678 34.3565 21.2924C34.4393 21.4234 34.4676 21.6266 34.4676 21.9154C34.4676 22.2042 34.4393 22.4074 34.3565 22.5384C34.2777 22.663 34.1428 22.7316 33.8983 22.7316H32.2532C31.3199 22.7316 30.6703 22.8685 30.2523 23.0992C29.8311 23.3317 29.6446 23.6604 29.6446 24.0334V24.6601C29.6446 25.0253 29.8314 25.3533 30.2522 25.5873C30.6701 25.8197 31.3197 25.9603 32.2532 25.9603H36.0066C37.5692 25.9603 38.7344 26.2089 39.5075 26.6992C40.2769 27.187 40.6627 27.9169 40.6627 28.8962V29.6984C40.6627 30.6852 40.2768 31.4146 39.5076 31.9001C38.7345 32.3881 37.5693 32.6327 36.0066 32.6327H28.2218C27.9773 32.6327 27.8423 32.5641 27.7636 32.4394C27.6808 32.3084 27.6524 32.1052 27.6524 31.8165C27.6524 31.5277 27.6808 31.3245 27.7636 31.1935C27.8423 31.0689 27.9773 31.0002 28.2218 31.0002H36.0603C36.9936 31.0002 37.6435 30.8634 38.0619 30.6327C38.4835 30.4002 38.6705 30.0716 38.6705 29.6984V28.8962C38.6705 28.5302 38.4833 28.2018 38.0621 27.9676C37.6437 27.735 36.9938 27.5944 36.0603 27.5944H32.3085Z" fill="white" stroke="url(#paint0_linear_1_446)" stroke-width="0.1"/>
<path d="M59.0567 21.6749L59.057 21.6746C59.2036 21.4945 59.3898 21.3515 59.6008 21.257C59.8118 21.1625 60.0418 21.1191 60.2724 21.1303L60.2723 21.1303H60.2748C60.657 21.1303 60.9369 21.221 61.1212 21.392C61.3048 21.5623 61.4017 21.8202 61.4017 22.173V31.992C61.4017 32.2863 61.3144 32.4556 61.1548 32.5559C60.9891 32.66 60.7359 32.6967 60.3869 32.6967C60.038 32.6967 59.7843 32.66 59.6182 32.5559C59.4582 32.4555 59.3706 32.2862 59.3706 31.992V24.3861V24.2461L59.2819 24.3545L52.9426 32.1042C52.9425 32.1043 52.9424 32.1044 52.9424 32.1044C52.7622 32.3186 52.5923 32.4656 52.4017 32.5597C52.2114 32.6537 51.9968 32.6967 51.7243 32.6967C51.4272 32.6967 51.1845 32.6496 50.976 32.553C50.7677 32.4566 50.5907 32.3095 50.4271 32.1051L50.4267 32.1047L44.0675 24.3544L43.9788 24.2464V24.3861V31.992C43.9788 32.2863 43.8916 32.4556 43.732 32.5559C43.5663 32.66 43.3131 32.6967 42.9641 32.6967C42.615 32.6967 42.3658 32.66 42.2039 32.5561C42.0481 32.4561 41.964 32.287 41.964 31.992V22.173C41.964 21.8202 42.0609 21.5622 42.2426 21.3918C42.4249 21.2209 42.7008 21.1303 43.0746 21.1303V21.1304L43.0765 21.1303C43.307 21.1215 43.5363 21.1659 43.7471 21.2603C43.9578 21.3547 44.1445 21.4965 44.2926 21.6749C44.2927 21.6749 44.2927 21.675 44.2927 21.675L51.6076 30.58L51.6461 30.6269L51.6848 30.5802L59.0567 21.6749Z" fill="white" stroke="url(#paint1_linear_1_446)" stroke-width="0.1"/>
<path d="M77.3985 32.713V32.713L77.3955 32.7131C77.2695 32.7206 77.1437 32.6964 77.0292 32.6427C76.9151 32.5891 76.8158 32.5078 76.7403 32.406L74.8649 29.6473L74.8501 29.6254H74.8236H65.9821H65.9547L65.94 29.6485L64.177 32.4068C64.1042 32.5076 64.0076 32.5884 63.896 32.6419C63.784 32.6956 63.6605 32.7201 63.5368 32.7131L63.5368 32.713H63.534C63.2822 32.713 63.0077 32.6242 62.797 32.4755C62.5862 32.3268 62.4465 32.124 62.4461 31.8978C62.4507 31.7816 62.4861 31.6688 62.5486 31.5712C62.5487 31.5712 62.5487 31.5711 62.5488 31.5711L69.0683 21.5905C69.0684 21.5904 69.0684 21.5903 69.0685 21.5902C69.2946 21.2544 69.6592 21.0499 70.2818 21.0499C70.5941 21.0499 70.8324 21.1015 71.0218 21.1939C71.2107 21.2861 71.3542 21.4205 71.4746 21.5913C71.4746 21.5913 71.4747 21.5914 71.4747 21.5914L78.4069 31.5717C78.4714 31.6735 78.5068 31.7912 78.5091 31.912C78.509 32.1303 78.3684 32.3296 78.1535 32.4769C77.9391 32.624 77.6588 32.713 77.3985 32.713ZM67.0373 27.9225L66.988 27.9995H67.0794H73.6467H73.7408L73.6881 27.9215L70.3167 22.9308L70.2741 22.8678L70.2331 22.9318L67.0373 27.9225Z" fill="white" stroke="url(#paint2_linear_1_446)" stroke-width="0.1"/>
<path d="M85.0854 28.1556L85.0325 28.1525V28.2055V28.2383V28.273L85.065 28.2851C85.2098 28.3393 85.3565 28.3925 85.5207 28.452C86.1339 28.6744 86.9906 28.985 88.8951 29.7612L88.8952 29.7612L92.7283 31.3165L92.7282 31.3168L92.7337 31.3183C92.8766 31.358 93.0016 31.4463 93.0874 31.5685C93.1732 31.6907 93.2146 31.8391 93.2044 31.9886L93.2043 31.9886V31.992C93.2043 32.2691 93.1144 32.4395 92.9497 32.5444C92.7797 32.6526 92.5218 32.6967 92.1733 32.6967C92.0243 32.6967 91.7963 32.689 91.5648 32.6574C91.3318 32.6256 91.1013 32.5704 90.9435 32.4787L90.9436 32.4784L90.9383 32.4761L81.6368 28.4172L81.5668 28.3867V28.4631V31.992C81.5668 32.2863 81.4796 32.4556 81.32 32.5559C81.1543 32.66 80.9011 32.6967 80.5521 32.6967C80.203 32.6967 79.9537 32.66 79.7919 32.5561C79.6361 32.4562 79.552 32.2871 79.552 31.992V21.7874H79.552L79.552 21.7869C79.5496 21.5457 79.6065 21.3766 79.7161 21.2673C79.8258 21.1578 79.9974 21.0992 80.2449 21.0992H89.1855C90.6191 21.0992 91.7781 21.3552 92.5768 21.8028C93.3741 22.2496 93.809 22.8847 93.809 23.6479V25.6708C93.809 26.434 93.3741 27.0691 92.5768 27.5159C91.7781 27.9635 90.6191 28.2195 89.1855 28.2195H88.5483C86.6726 28.2195 85.9113 28.2031 85.0854 28.1556ZM81.612 22.7316H81.562V22.7816V26.5682V26.6182H81.612H88.9855C90.0683 26.6182 90.7677 26.5063 91.1981 26.3176C91.414 26.223 91.5648 26.1079 91.6616 25.9754C91.7588 25.8424 91.799 25.6952 91.799 25.5411V23.8087C91.799 23.655 91.7586 23.5079 91.6611 23.375C91.5641 23.2426 91.413 23.1275 91.1969 23.0328C90.7661 22.8439 90.0667 22.7316 88.9855 22.7316H81.612Z" fill="white" stroke="url(#paint3_linear_1_446)" stroke-width="0.1"/>
<path d="M101.772 22.7316H101.722V22.7816V31.992C101.722 32.2863 101.635 32.4556 101.475 32.5559C101.31 32.66 101.056 32.6967 100.708 32.6967C100.358 32.6967 100.109 32.66 99.9473 32.5561C99.7915 32.4562 99.7074 32.2871 99.7074 31.992V22.7816V22.7316H99.6574H94.8717C94.6272 22.7316 94.4923 22.663 94.4135 22.5384C94.3307 22.4074 94.3024 22.2042 94.3024 21.9154C94.3024 21.6266 94.3307 21.4234 94.4135 21.2924C94.4923 21.1678 94.6272 21.0992 94.8717 21.0992H106.576C106.82 21.0992 106.955 21.1678 107.034 21.2924C107.117 21.4234 107.145 21.6266 107.145 21.9154C107.145 22.2042 107.117 22.4074 107.034 22.5384C106.955 22.663 106.82 22.7316 106.576 22.7316H101.772Z" fill="white" stroke="url(#paint4_linear_1_446)" stroke-width="0.1"/>
<path d="M8.05292 20.6191H9.9484V17.929H8.05292C6.97825 17.929 5.94757 18.3598 5.18754 19.1266C4.42751 19.8934 4.00035 20.9335 4 22.0181V24.7082C4.00035 23.6236 4.42751 22.5835 5.18754 21.8167C5.94757 21.0499 6.97825 20.6191 8.05292 20.6191V20.6191Z" fill="white"/>
<path d="M8.05292 25.5981H9.8984V28.4955L4.05 33.0445L4.05 29.639C4.04994 29.1083 4.15346 28.5828 4.35464 28.0925C4.55582 27.6022 4.8507 27.1567 5.22244 26.7815C5.59417 26.4063 6.03546 26.1087 6.52112 25.9057C7.00677 25.7026 7.52727 25.5981 8.05292 25.5981Z" fill="white" stroke="url(#paint5_linear_1_446)" stroke-width="0.1"/>
<path d="M15.2293 25.5463L16.6733 25.5276C17.1592 25.5276 17.866 26.0514 17.866 26.8726C17.866 27.6938 17.1592 28.2172 16.6733 28.2172H17.601C20.4908 28.2172 23.3276 25.3934 22.2277 22.9392C21.8285 22.4385 21.3556 22.0025 20.8256 21.6463C20.3688 22.7745 19.5963 23.7442 18.6025 24.4367C17.6087 25.1293 16.4366 25.5148 15.2293 25.5463V25.5463Z" fill="white"/>
<g filter="url(#filter0_d_1_446)">
<path d="M4 29.639C3.99994 29.1018 4.10473 28.5698 4.30838 28.0735C4.51204 27.5772 4.81056 27.1262 5.18692 26.7463C5.56327 26.3664 6.01008 26.0651 6.50183 25.8595C6.99358 25.6539 7.52064 25.5481 8.05292 25.5481H15.0681C16.7168 25.5481 18.298 24.8871 19.4639 23.7105C20.6297 22.5339 21.2846 20.938 21.2846 19.2741C21.2846 17.6101 20.6297 16.0142 19.4639 14.8376C18.298 13.661 16.7168 13 15.0681 13H8.05292C7.52066 12.9999 6.99361 13.1057 6.50186 13.3112C6.01012 13.5168 5.5633 13.8181 5.18694 14.1979C4.81058 14.5778 4.51205 15.0287 4.30839 15.525C4.10473 16.0213 3.99994 16.5532 4 17.0904V22.0181C4 20.9332 4.427 19.8928 5.18707 19.1257C5.94714 18.3586 6.97802 17.9277 8.05292 17.9277H14.3574C14.8433 17.9277 15.55 18.4515 15.55 19.2727C15.55 20.0939 14.8433 20.6178 14.3574 20.6178H8.05292C6.97802 20.6178 5.94714 21.0487 5.18707 21.8158C4.427 22.5829 4 23.6233 4 24.7082V29.639Z" fill="white"/>
<path d="M4.26213 28.0545C4.17221 28.2737 4.10133 28.4997 4.05 28.73V24.7082C4.05 23.6364 4.47185 22.6087 5.22259 21.851C5.97332 21.0933 6.99143 20.6678 8.05292 20.6678H14.3574C14.6163 20.6678 14.9265 20.5294 15.171 20.2888C15.4166 20.0471 15.6 19.6985 15.6 19.2727C15.6 18.847 15.4166 18.4983 15.171 18.2566C14.9265 18.0161 14.6163 17.8777 14.3574 17.8777H8.05292C6.96461 17.8777 5.92096 18.314 5.15155 19.0905C4.59807 19.6491 4.21911 20.3509 4.05 21.1095L4.05 17.0904C4.04994 16.5597 4.15347 16.0343 4.35465 15.544C4.55583 15.0537 4.85072 14.6083 5.22246 14.2331C5.5942 13.8579 6.0355 13.5604 6.52115 13.3574C7.00679 13.1544 7.52729 13.0499 8.05291 13.05H15.0681C16.7034 13.05 18.2719 13.7056 19.4283 14.8728C20.5848 16.04 21.2346 17.6232 21.2346 19.2741C21.2346 20.9249 20.5848 22.5081 19.4283 23.6753C18.2719 24.8425 16.7034 25.4981 15.0681 25.4981H8.05292C7.51401 25.4981 6.9804 25.6052 6.48254 25.8134C5.98469 26.0215 5.53237 26.3266 5.1514 26.7111C4.77042 27.0957 4.46825 27.5522 4.26213 28.0545Z" stroke="url(#paint6_linear_1_446)" stroke-width="0.1"/>
</g>
<path d="M21.4482 26.5311C22.3074 25.5982 22.7536 24.4001 22.3984 23.2474C23.0066 24.104 23.3905 25.1044 23.5113 26.1551C23.6454 27.3214 23.4499 28.5023 22.9474 29.5612C22.4449 30.6202 21.6559 31.514 20.6716 32.1396C19.6872 32.7651 18.5477 33.0969 17.3846 33.0967H4.05V32.3072C4.05 31.2355 4.47185 30.2077 5.22259 29.45C5.97332 28.6923 6.99143 28.2668 8.05292 28.2668H17.6019C19.0622 28.2668 20.5068 27.5533 21.4482 26.5311Z" fill="white" stroke="url(#paint7_linear_1_446)" stroke-width="0.1"/>
<defs>
<filter id="filter0_d_1_446" x="0" y="13" width="25.2846" height="24.639" filterUnits="userSpaceOnUse" color-interpolation-filters="sRGB">
<feFlood flood-opacity="0" result="BackgroundImageFix"/>
<feColorMatrix in="SourceAlpha" type="matrix" values="0 0 0 0 0 0 0 0 0 0 0 0 0 0 0 0 0 0 127 0" result="hardAlpha"/>
<feOffset dy="4"/>
<feGaussianBlur stdDeviation="2"/>
<feComposite in2="hardAlpha" operator="out"/>
<feColorMatrix type="matrix" values="0 0 0 0 0 0 0 0 0 0 0 0 0 0 0 0 0 0 0.25 0"/>
<feBlend mode="normal" in2="BackgroundImageFix" result="effect1_dropShadow_1_446"/>
<feBlend mode="normal" in="SourceGraphic" in2="effect1_dropShadow_1_446" result="shape"/>
</filter>
<linearGradient id="paint0_linear_1_446" x1="25.3838" y1="19.9728" x2="42.8959" y2="27.7946" gradientUnits="userSpaceOnUse">
<stop stop-color="#01E3AD"/>
<stop offset="1" stop-color="#01289D"/>
</linearGradient>
<linearGradient id="paint1_linear_1_446" x1="38.6076" y1="19.999" x2="60.34" y2="34.4218" gradientUnits="userSpaceOnUse">
<stop stop-color="#01E3AD"/>
<stop offset="1" stop-color="#01289D"/>
</linearGradient>
<linearGradient id="paint2_linear_1_446" x1="59.6608" y1="19.9114" x2="79.6354" y2="30.788" gradientUnits="userSpaceOnUse">
<stop stop-color="#01E3AD"/>
<stop offset="1" stop-color="#01289D"/>
</linearGradient>
<linearGradient id="paint3_linear_1_446" x1="77.0722" y1="19.9669" x2="95.6739" y2="29.0157" gradientUnits="userSpaceOnUse">
<stop stop-color="#01E3AD"/>
<stop offset="1" stop-color="#01289D"/>
</linearGradient>
<linearGradient id="paint4_linear_1_446" x1="92.0621" y1="19.9669" x2="109.455" y2="27.5941" gradientUnits="userSpaceOnUse">
<stop stop-color="#01E3AD"/>
<stop offset="1" stop-color="#01289D"/>
</linearGradient>
<linearGradient id="paint5_linear_1_446" x1="2.99335" y1="24.8451" x2="11.6872" y2="27.5425" gradientUnits="userSpaceOnUse">
<stop stop-color="#01E3AD"/>
<stop offset="1" stop-color="#01289D"/>
</linearGradient>
<linearGradient id="paint6_linear_1_446" x1="1.07491" y1="11.4606" x2="24.755" y2="21.2101" gradientUnits="userSpaceOnUse">
<stop stop-color="#01E3AD"/>
<stop offset="1" stop-color="#01289D"/>
</linearGradient>
<linearGradient id="paint7_linear_1_446" x1="0.682663" y1="21.9942" x2="20.5703" y2="37.1306" gradientUnits="userSpaceOnUse">
<stop stop-color="#01E3AD"/>
<stop offset="1" stop-color="#01289D"/>
</linearGradient>
</defs>
</svg>
